<svg xmlns="http://www.w3.org/2000/svg" xmlns:xlink="http://www.w3.org/1999/xlink" version="1.1" x="0px" y="0px" viewBox="-13.0 -26.0 286.0 351.0" enable-background="new 0 0 260 260" xml:space="preserve"><path d="M212.229,103.261c6.903,0,12.5-5.596,12.5-12.5s-5.597-12.5-12.5-12.5h-19.324V64.547h19.324c6.903,0,12.5-5.596,12.5-12.5  s-5.597-12.5-12.5-12.5h-19.324V18.796c0-6.903-5.597-12.5-12.5-12.5H136.68c-4.821,0-9.213,2.773-11.286,7.126  c-0.547,1.148-1.811,2.374-3.718,2.374c-1.908,0-3.171-1.226-3.717-2.372c-2.072-4.354-6.464-7.128-11.287-7.128H63.949  c-6.903,0-12.5,5.597-12.5,12.5v20.751H31.172c-6.903,0-12.5,5.596-12.5,12.5s5.597,12.5,12.5,12.5h20.277v13.714H31.172  c-6.903,0-12.5,5.596-12.5,12.5s5.597,12.5,12.5,12.5h20.277v13.714H31.172c-6.903,0-12.5,5.596-12.5,12.5s5.597,12.5,12.5,12.5  h20.277v13.713H31.172c-6.903,0-12.5,5.597-12.5,12.5s5.597,12.5,12.5,12.5h20.277v13.717H31.172c-6.903,0-12.5,5.597-12.5,12.5  s5.597,12.5,12.5,12.5h20.277v19.8c0,6.903,5.597,12.5,12.5,12.5h43.338c4.462,0,8.585-2.379,10.82-6.24  c0.754-1.304,2.088-2.082,3.569-2.082c1.481,0,2.817,0.779,3.573,2.085c2.235,3.86,6.357,6.237,10.818,6.237h44.338  c6.903,0,12.5-5.597,12.5-12.5v-19.8h19.324c6.903,0,12.5-5.597,12.5-12.5s-5.597-12.5-12.5-12.5h-19.324v-13.717h19.324  c6.903,0,12.5-5.597,12.5-12.5s-5.597-12.5-12.5-12.5h-19.324v-13.713h19.324c6.903,0,12.5-5.596,12.5-12.5s-5.597-12.5-12.5-12.5  h-19.324v-13.714H212.229z M167.904,226.704h-25.873c-5.379-5.252-12.677-8.322-20.355-8.322c-7.679,0-14.977,3.07-20.355,8.322  H76.449V31.296h23.746c5.444,5.937,13.232,9.5,21.481,9.5c8.248,0,16.036-3.564,21.48-9.5h24.748V226.704z"/><text x="0.0" y="305.5" font-size="13.0" font-weight="bold" font-family="Arbeit Regular, Helvetica, Arial-Unicode, Arial, Sans-serif" fill="#000000">Created by Seanau</text><text x="0.0" y="318.5" font-size="13.0" font-weight="bold" font-family="Arbeit Regular, Helvetica, Arial-Unicode, Arial, Sans-serif" fill="#000000">from Noun Project</text></svg>