<svg xmlns="http://www.w3.org/2000/svg" xmlns:xlink="http://www.w3.org/1999/xlink" xmlns:serif="http://www.serif.com/" viewBox="0 0 64 80" version="1.1" xml:space="preserve" style="" x="0px" y="0px" fill-rule="evenodd" clip-rule="evenodd" stroke-linejoin="round" stroke-miterlimit="2"><g transform="matrix(2,0,0,2,-600,-336)"><path d="M320.488,196L320.488,199L319,199C318.724,199 318.5,199.224 318.5,199.5C318.5,199.776 318.724,200 319,200L327,200C327.276,200 327.5,199.776 327.5,199.5C327.5,199.224 327.276,199 327,199L325.5,199L325.5,196L331.5,196C331.776,196 332,195.776 332,195.5L332,182.5C332,182.224 331.776,182 331.5,182L314.5,182C314.224,182 314,182.224 314,182.5L314,195.5C314,195.776 314.224,196 314.5,196L320.488,196ZM321.488,196L321.488,199L324.5,199L324.5,196L321.488,196ZM315,183L331,183L331,195L315,195L315,183ZM328,194.5L329,194.5C329.276,194.5 329.5,194.276 329.5,194C329.5,193.724 329.276,193.5 329,193.5L328,193.5C327.724,193.5 327.5,193.724 327.5,194C327.5,194.276 327.724,194.5 328,194.5ZM329.5,193C329.776,193 330,192.776 330,192.5L330,184.512C330,184.235 329.776,184.012 329.5,184.012L316.5,184.012C316.224,184.012 316,184.235 316,184.512L316,192.5C316,192.776 316.224,193 316.5,193L329.5,193ZM329,192L317,192L317,185.012L329,185.012L329,192ZM304.5,188C304.5,189.955 305.871,191.5 307.5,191.5L309,191.5C309.276,191.5 309.5,191.276 309.5,191C309.5,190.724 309.276,190.5 309,190.5L307.5,190.5C306.369,190.5 305.5,189.357 305.5,188L307,188C307.184,188 307.354,187.899 307.441,187.736C307.528,187.573 307.518,187.376 307.416,187.223L305.416,184.223C305.323,184.084 305.167,184 305,184C304.833,184 304.677,184.084 304.584,184.223L302.584,187.223C302.482,187.376 302.472,187.573 302.559,187.736C302.646,187.899 302.816,188 303,188L304.5,188ZM323.026,186.842L322.026,189.842C321.938,190.104 322.08,190.387 322.342,190.474C322.604,190.562 322.887,190.42 322.974,190.158L323.974,187.158C324.062,186.896 323.92,186.613 323.658,186.526C323.396,186.438 323.113,186.58 323.026,186.842ZM324.7,187.4L326.167,188.5L324.7,189.6C324.479,189.766 324.434,190.079 324.6,190.3C324.766,190.521 325.079,190.566 325.3,190.4L327.3,188.9C327.426,188.806 327.5,188.657 327.5,188.5C327.5,188.343 327.426,188.194 327.3,188.1L325.3,186.6C325.079,186.434 324.766,186.479 324.6,186.7C324.434,186.921 324.479,187.234 324.7,187.4ZM320.7,186.6L318.7,188.1C318.574,188.194 318.5,188.343 318.5,188.5C318.5,188.657 318.574,188.806 318.7,188.9L320.7,190.4C320.921,190.566 321.234,190.521 321.4,190.3C321.566,190.079 321.521,189.766 321.3,189.6L319.833,188.5L321.3,187.4C321.521,187.234 321.566,186.921 321.4,186.7C321.234,186.479 320.921,186.434 320.7,186.6ZM305,185.401L306.066,187L303.934,187L305,185.401ZM301.512,170.5L300.5,170.5C300.224,170.5 300,170.724 300,171C300,171.276 300.224,171.5 300.5,171.5L301.512,171.5L301.512,173.5L300.5,173.5C300.224,173.5 300,173.724 300,174C300,174.276 300.224,174.5 300.5,174.5L301.512,174.5L301.512,176.5L300.5,176.5C300.224,176.5 300,176.724 300,177C300,177.276 300.224,177.5 300.5,177.5L301.512,177.5L301.512,179.5C301.512,179.776 301.736,180 302.012,180L308,180C308.276,180 308.5,179.776 308.5,179.5L308.5,177.5L309.5,177.5C309.776,177.5 310,177.276 310,177C310,176.724 309.776,176.5 309.5,176.5L308.5,176.5L308.5,174.5L309.5,174.5C309.776,174.5 310,174.276 310,174C310,173.724 309.776,173.5 309.5,173.5L308.5,173.5L308.5,171.5L309.5,171.5C309.776,171.5 310,171.276 310,171C310,170.724 309.776,170.5 309.5,170.5L308.5,170.5L308.5,168.5C308.5,168.224 308.276,168 308,168L306,168C305.724,168 305.5,168.224 305.5,168.5L305.5,169.5C305.5,169.776 305.276,170 305,170C304.724,170 304.5,169.776 304.5,169.5L304.5,168.5C304.5,168.224 304.276,168 304,168L302.012,168C301.736,168 301.512,168.224 301.512,168.5L301.512,170.5ZM303.5,169L303.5,169.5C303.5,170.328 304.172,171 305,171C305.828,171 306.5,170.328 306.5,169.5L306.5,169L307.5,169L307.5,179L302.512,179L302.512,169L303.5,169Z"/></g><text x="0" y="79" fill="#000000" font-size="5px" font-weight="bold" font-family="'Helvetica Neue', Helvetica, Arial-Unicode, Arial, Sans-serif">Created by Warunk Icon</text><text x="0" y="84" fill="#000000" font-size="5px" font-weight="bold" font-family="'Helvetica Neue', Helvetica, Arial-Unicode, Arial, Sans-serif">from the Noun Project</text></svg>