<?xml version="1.0" encoding="UTF-8" standalone="no"?>
<svg
   viewBox="0 0 64 80"
   version="1.1"
   xml:space="preserve"
   style=""
   x="0px"
   y="0px"
   fill-rule="evenodd"
   clip-rule="evenodd"
   stroke-linejoin="round"
   stroke-miterlimit="2"
   id="svg10"
   sodipodi:docname="icon.svg"
   inkscape:export-filename="icon.png"
   inkscape:export-xdpi="96"
   inkscape:export-ydpi="96"
   inkscape:version="1.2 (dc2aeda, 2022-05-15)"
   xmlns:inkscape="http://www.inkscape.org/namespaces/inkscape"
   xmlns:sodipodi="http://sodipodi.sourceforge.net/DTD/sodipodi-0.dtd"
   xmlns="http://www.w3.org/2000/svg"
   xmlns:svg="http://www.w3.org/2000/svg"><defs
     id="defs14" /><sodipodi:namedview
     id="namedview12"
     pagecolor="#505050"
     bordercolor="#eeeeee"
     borderopacity="1"
     inkscape:showpageshadow="0"
     inkscape:pageopacity="0"
     inkscape:pagecheckerboard="0"
     inkscape:deskcolor="#505050"
     showgrid="false"
     inkscape:zoom="5.48125"
     inkscape:cx="32.200684"
     inkscape:cy="68.141391"
     inkscape:window-width="1390"
     inkscape:window-height="1027"
     inkscape:window-x="0"
     inkscape:window-y="25"
     inkscape:window-maximized="0"
     inkscape:current-layer="svg10" /><g
     transform="matrix(1.3614596,0,0,1.3158495,-398.22121,-210.11631)"
     id="g4"><path
       d="m 320.488,196 v 3 H 319 c -0.276,0 -0.5,0.224 -0.5,0.5 0,0.276 0.224,0.5 0.5,0.5 h 8 c 0.276,0 0.5,-0.224 0.5,-0.5 0,-0.276 -0.224,-0.5 -0.5,-0.5 h -1.5 v -3 h 6 c 0.276,0 0.5,-0.224 0.5,-0.5 v -13 c 0,-0.276 -0.224,-0.5 -0.5,-0.5 h -17 c -0.276,0 -0.5,0.224 -0.5,0.5 v 13 c 0,0.276 0.224,0.5 0.5,0.5 z m 1,0 v 3 h 3.012 v -3 z M 315,183 h 16 v 12 h -16 z m 13,11.5 h 1 c 0.276,0 0.5,-0.224 0.5,-0.5 0,-0.276 -0.224,-0.5 -0.5,-0.5 h -1 c -0.276,0 -0.5,0.224 -0.5,0.5 0,0.276 0.224,0.5 0.5,0.5 z m 1.5,-1.5 c 0.276,0 0.5,-0.224 0.5,-0.5 v -7.988 c 0,-0.277 -0.224,-0.5 -0.5,-0.5 h -13 c -0.276,0 -0.5,0.223 -0.5,0.5 v 7.988 c 0,0.276 0.224,0.5 0.5,0.5 z m -0.5,-1 h -12 v -6.988 h 12 z m -24.5,-4 c 0,1.955 1.371,3.5 3,3.5 h 1.5 c 0.276,0 0.5,-0.224 0.5,-0.5 0,-0.276 -0.224,-0.5 -0.5,-0.5 h -1.5 c -1.131,0 -2,-1.143 -2,-2.5 h 1.5 c 0.184,0 0.354,-0.101 0.441,-0.264 0.087,-0.163 0.077,-0.36 -0.025,-0.513 l -2,-3 C 305.323,184.084 305.167,184 305,184 c -0.167,0 -0.323,0.084 -0.416,0.223 l -2,3 c -0.102,0.153 -0.112,0.35 -0.025,0.513 0.087,0.163 0.257,0.264 0.441,0.264 z m 18.526,-1.158 -1,3 c -0.088,0.262 0.054,0.545 0.316,0.632 0.262,0.088 0.545,-0.054 0.632,-0.316 l 1,-3 c 0.088,-0.262 -0.054,-0.545 -0.316,-0.632 -0.262,-0.088 -0.545,0.054 -0.632,0.316 z m 1.674,0.558 1.467,1.1 -1.467,1.1 c -0.221,0.166 -0.266,0.479 -0.1,0.7 0.166,0.221 0.479,0.266 0.7,0.1 l 2,-1.5 c 0.126,-0.094 0.2,-0.243 0.2,-0.4 0,-0.157 -0.074,-0.306 -0.2,-0.4 l -2,-1.5 c -0.221,-0.166 -0.534,-0.121 -0.7,0.1 -0.166,0.221 -0.121,0.534 0.1,0.7 z m -4,-0.8 -2,1.5 c -0.126,0.094 -0.2,0.243 -0.2,0.4 0,0.157 0.074,0.306 0.2,0.4 l 2,1.5 c 0.221,0.166 0.534,0.121 0.7,-0.1 0.166,-0.221 0.121,-0.534 -0.1,-0.7 l -1.467,-1.1 1.467,-1.1 c 0.221,-0.166 0.266,-0.479 0.1,-0.7 -0.166,-0.221 -0.479,-0.266 -0.7,-0.1 z M 305,185.401 306.066,187 h -2.132 z M 301.512,170.5 H 300.5 c -0.276,0 -0.5,0.224 -0.5,0.5 0,0.276 0.224,0.5 0.5,0.5 h 1.012 v 2 H 300.5 c -0.276,0 -0.5,0.224 -0.5,0.5 0,0.276 0.224,0.5 0.5,0.5 h 1.012 v 2 H 300.5 c -0.276,0 -0.5,0.224 -0.5,0.5 0,0.276 0.224,0.5 0.5,0.5 h 1.012 v 2 c 0,0.276 0.224,0.5 0.5,0.5 H 308 c 0.276,0 0.5,-0.224 0.5,-0.5 v -2 h 1 c 0.276,0 0.5,-0.224 0.5,-0.5 0,-0.276 -0.224,-0.5 -0.5,-0.5 h -1 v -2 h 1 c 0.276,0 0.5,-0.224 0.5,-0.5 0,-0.276 -0.224,-0.5 -0.5,-0.5 h -1 v -2 h 1 c 0.276,0 0.5,-0.224 0.5,-0.5 0,-0.276 -0.224,-0.5 -0.5,-0.5 h -1 v -2 c 0,-0.276 -0.224,-0.5 -0.5,-0.5 h -2 c -0.276,0 -0.5,0.224 -0.5,0.5 v 1 c 0,0.276 -0.224,0.5 -0.5,0.5 -0.276,0 -0.5,-0.224 -0.5,-0.5 v -1 c 0,-0.276 -0.224,-0.5 -0.5,-0.5 h -1.988 c -0.276,0 -0.5,0.224 -0.5,0.5 z M 303.5,169 v 0.5 c 0,0.828 0.672,1.5 1.5,1.5 0.828,0 1.5,-0.672 1.5,-1.5 V 169 h 1 v 10 h -4.988 v -10 z"
       id="path2" /></g></svg>
